<svg xmlns="http://www.w3.org/2000/svg" viewBox="0 0 88.56 29.63"><defs><style>.cls-1{fill:#2962ff;}</style></defs><title>Asset 4</title><g id="Layer_2" data-name="Layer 2"><g id="Layer_1-2" data-name="Layer 1"><ellipse class="cls-1" cx="11.2" cy="4.49" rx="11.2" ry="4.49"/><path class="cls-1" d="M11.45,24.21c-3.57.86-7.26,1.75-9.61,3.31C.66,26.78,0,25.94,0,25.14c0-3.55,5.93-4.9,11.67-6.19,4.14-.94,8.36-1.9,10.72-3.82v3.13C22.39,21.59,16.83,22.93,11.45,24.21Z"/><path class="cls-1" d="M11.25,17.09c-4.35,1-8.8,2-11.25,4.09v-.69c0-6.18,6.79-7.77,13.35-9.31,4.77-1.11,7.09-1.7,9-3.27v3.47C22.39,14.57,16.73,15.85,11.25,17.09Z"/><path class="cls-1" d="M22.39,22.14c-2.32,2-6.45,3-10.49,3.93a40.56,40.56,0,0,0-8,2.44,21.93,21.93,0,0,0,7.26,1.12c6.52,0,11.19-2.34,11.19-4.49Z"/><path class="cls-1" d="M40.13,17.74v7H36.06V4.93h7.71a9,9,0,0,1,3.92.81,6,6,0,0,1,2.6,2.32,6.43,6.43,0,0,1,.91,3.42,5.67,5.67,0,0,1-2,4.58,8.27,8.27,0,0,1-5.51,1.68Zm0-3.3h3.64a3.63,3.63,0,0,0,2.47-.76,2.81,2.81,0,0,0,.85-2.18,3.27,3.27,0,0,0-.86-2.35,3.19,3.19,0,0,0-2.36-.92H40.13Z"/><path class="cls-1" d="M61.6,17.47H58.36v7.24H54.28V4.93h7.35A8.32,8.32,0,0,1,67,6.49a5.4,5.4,0,0,1,1.9,4.41,6,6,0,0,1-.88,3.38,5.94,5.94,0,0,1-2.65,2.15l4.28,8.09v.19H65.31Zm-3.24-3.3h3.28A3.32,3.32,0,0,0,64,13.38a2.78,2.78,0,0,0,.84-2.15A3,3,0,0,0,64.07,9a3.32,3.32,0,0,0-2.44-.8H58.36Z"/><path class="cls-1" d="M88.56,15.27a11.94,11.94,0,0,1-1,5.12,7.73,7.73,0,0,1-3,3.39,8.14,8.14,0,0,1-4.4,1.2,8.29,8.29,0,0,1-4.39-1.18,7.89,7.89,0,0,1-3-3.38,11.4,11.4,0,0,1-1.07-5.05v-1a11.93,11.93,0,0,1,1-5.15,7.87,7.87,0,0,1,3-3.41,8.77,8.77,0,0,1,8.79,0,7.83,7.83,0,0,1,3,3.41,11.87,11.87,0,0,1,1,5.13Zm-4.13-.9a8.37,8.37,0,0,0-1.11-4.73,3.94,3.94,0,0,0-6.35,0,8.21,8.21,0,0,0-1.12,4.68v1A8.46,8.46,0,0,0,77,20a3.9,3.9,0,0,0,6.36.06,8.45,8.45,0,0,0,1.11-4.7Z"/></g></g></svg>