<svg width="193" height="262" viewBox="0 0 193 262" fill="none" xmlns="http://www.w3.org/2000/svg">
<g opacity="0.7">
<path d="M95.9786 0C104.589 0.478654 111.514 0.574385 118.347 1.2445C134.257 2.7762 149.886 6.12678 164.767 12.445C173.377 16.1785 181.519 20.6779 187.79 28.0491C194.06 35.5162 194.435 43.1746 188.539 50.5459C186.199 53.4178 183.391 56.0983 180.396 58.3001C170.85 65.4799 159.9 69.5006 148.576 72.7555C128.454 78.4036 107.958 80.2225 87.1812 79.1694C76.9799 78.6908 66.8722 77.0633 56.8582 75.5317C45.4402 73.8085 34.5838 70.2664 24.1954 65.2884C17.1762 62.0336 10.8121 58.0129 5.66466 52.2691C-0.23148 45.8551 -1.63532 39.0582 2.29544 32.2613C4.35441 28.6235 7.44287 25.3687 10.6249 22.6882C18.2057 16.2742 27.1903 12.1578 36.5492 9.28589C44.8787 6.79689 53.3953 4.78654 61.912 2.87193C65.2812 2.10608 68.8376 1.81889 72.3004 1.53169C80.8171 0.861578 89.2402 0.382923 95.9786 0Z" fill="#2962FF"/>
<path d="M192.47 134.598C192.563 135.938 192.75 136.895 192.75 137.852C192.75 145.224 192.75 152.691 192.75 160.062C192.75 168.965 189.007 176.049 182.643 181.793C173.658 189.93 162.895 194.812 151.665 198.546C139.03 202.758 126.208 206.396 113.386 209.938C101.313 213.193 88.9596 215.873 76.8865 219.032C59.8532 223.532 42.9135 228.318 27.0033 236.264C23.9148 237.795 20.9199 239.519 18.0187 241.337C16.4276 242.295 15.1174 242.39 13.7135 241.242C10.8123 238.657 7.53663 236.264 4.91612 233.392C-1.44797 226.308 -1.07361 217.788 2.85715 209.842C7.06868 201.322 14.4623 196.057 22.4174 191.653C34.3968 185.048 47.3122 180.644 60.4147 177.294C73.8916 173.752 87.4621 170.592 101.033 167.146C111.702 164.466 122.371 161.785 133.04 159.2C145.301 156.233 157.467 152.595 168.979 147.33C175.811 144.266 182.175 140.15 188.726 136.512C189.568 136.034 190.317 135.459 191.159 134.981C191.44 134.885 191.721 134.789 192.47 134.598Z" fill="#2962FF"/>
<path d="M192.75 87.499C192.75 90.8496 192.657 94.2002 192.75 97.5508C193.312 108.56 188.164 116.41 179.835 122.537C170.382 129.429 159.713 133.737 148.763 137.184C139.404 140.151 129.951 142.832 120.499 145.321C109.736 148.097 98.9734 150.395 88.2105 152.98C81.1913 154.703 74.0785 156.426 67.1529 158.245C59.7593 160.159 52.3657 162.17 45.0658 164.467C30.2786 169.158 15.8658 174.806 3.32481 184.38C2.57609 184.954 1.5466 185.145 0.704298 185.528C0.517119 184.571 0.14276 183.614 0.14276 182.561C-0.0444188 170.211 2.38891 158.628 9.22095 148.289C15.0235 139.481 22.6978 132.876 31.4017 127.419C42.9132 120.239 55.3606 115.07 68.276 111.336C80.817 107.698 93.5452 104.348 106.18 101.093C119.282 97.6465 132.572 94.6789 145.675 91.1368C158.496 87.6904 171.225 83.8612 182.736 76.9685C185.169 75.5325 187.415 73.8093 189.755 72.2776C190.41 71.799 191.253 71.6075 192.001 71.3203C192.282 72.0862 192.657 72.852 192.75 73.7136C192.844 78.213 192.75 82.8081 192.75 87.499Z" fill="#2962FF"/>
<path d="M192.376 196.248C192.564 197.493 192.751 198.354 192.751 199.12C192.751 206.491 192.751 213.767 192.751 221.138C192.657 228.414 188.539 233.391 183.485 237.891C176.934 243.635 169.353 247.368 161.398 250.527C151.852 254.356 141.932 256.845 131.917 258.569C118.721 260.77 105.432 261.823 92.1419 261.441C88.6791 261.345 85.3098 261.249 81.847 260.962C69.1188 260.196 56.5778 258.186 44.3176 254.835C41.3227 253.974 38.3279 252.921 35.333 251.867C35.333 251.58 35.333 251.293 35.333 250.91C37.2984 249.953 39.2638 248.9 41.3227 248.038C53.583 242.965 66.124 239.135 78.9458 235.976C92.3291 232.626 105.712 229.371 119.096 225.925C134.538 221.904 149.98 217.787 164.767 211.661C173.471 208.119 181.894 204.002 189.381 198.067C190.13 197.397 191.16 197.014 192.376 196.248Z" fill="#2962FF"/>
</g>
</svg>
