<svg width="1179" height="1164" fill="none" xmlns="http://www.w3.org/2000/svg"><g opacity=".1"><path d="M1177.03 386.972c.57 8.196 1.71 14.05 1.71 19.905v135.82c0 54.445-22.89 97.767-61.81 132.893-54.94 49.761-120.762 79.618-189.442 102.45-77.266 25.759-155.676 48.005-234.086 69.666-73.831 19.905-149.38 36.297-223.211 55.616-104.165 27.516-207.758 56.787-305.056 105.378-18.887 9.37-37.201 19.9-54.944 31.03-9.73 5.85-17.742 6.44-26.327-.59-17.743-15.8-37.775-30.44-53.8-48.003-38.919-43.322-36.63-95.425-12.591-144.016 25.755-52.103 70.97-84.302 119.618-111.232 73.259-40.395 152.241-67.325 232.369-87.815 82.416-21.661 165.405-40.98 248.394-62.055 65.246-16.392 130.493-32.785 195.739-48.591 74.976-18.149 149.38-40.395 219.777-72.594 41.78-18.734 80.7-43.907 120.76-66.153 5.15-2.928 9.73-6.44 14.88-9.367 1.72-.586 3.44-1.171 8.02-2.342z" fill="url(#paint0_linear)"/><path d="M1178.75 98.938c0 20.49-.58 40.98 0 61.47 3.43 67.325-28.05 115.33-78.99 152.798-57.8 42.151-123.049 68.495-190.013 89.571-57.233 18.148-115.039 34.54-172.845 49.761-65.819 16.978-131.638 31.028-197.456 46.835-42.926 10.538-86.423 21.075-128.776 32.199-45.215 11.708-90.429 24.002-135.072 38.053-90.429 28.686-178.569 63.226-255.262 121.769-4.578 3.513-10.874 4.684-16.025 7.025-1.145-5.854-3.434-11.708-3.434-18.148-1.145-75.521 13.736-146.358 55.516-209.584 35.485-53.86 82.417-94.255 135.644-127.624 70.398-43.908 146.518-75.521 225.501-98.353 76.693-22.246 154.531-42.736 231.796-62.641 80.127-21.075 161.399-39.224 241.526-60.885 78.41-21.075 156.25-44.492 226.65-86.644 14.88-8.781 28.61-19.319 42.92-28.686 4.01-2.927 9.16-4.098 13.74-5.854 1.71 4.683 4 9.367 4.58 14.636.57 27.515 0 55.616 0 84.302z" fill="url(#paint1_linear)"/><path d="M1176.46 763.995c1.14 7.611 2.29 12.88 2.29 17.563v134.649c-.58 44.493-25.76 74.935-56.67 102.453-40.06 35.12-86.42 57.96-135.067 77.27-58.379 23.42-119.046 38.64-180.286 49.18-80.7 13.47-161.972 19.91-243.243 17.56-21.177-.58-41.781-1.17-62.957-2.92-77.838-4.69-154.531-16.98-229.507-37.47-18.315-5.27-36.63-11.71-54.945-18.15v-5.85c12.019-5.86 24.038-12.3 36.63-17.57 74.976-31.02 151.669-54.44 230.079-73.76 81.844-20.491 163.688-40.396 245.533-61.471 94.435-24.588 188.871-49.762 279.303-87.229 53.22-21.661 104.73-46.835 150.52-83.132 4.58-4.098 10.88-6.439 18.32-11.123z" fill="url(#paint2_linear)"/></g><defs><linearGradient id="paint0_linear" x1="589.372" y1="386.972" x2="589.372" y2="1044.26" gradientUnits="userSpaceOnUse"><stop offset="0" stop-color="#fff"/><stop offset="0" stop-color="#fff" stop-opacity=".6"/><stop offset="1" stop-color="#fff" stop-opacity="0"/></linearGradient><linearGradient id="paint1_linear" x1="589.908" y1="0" x2="589.908" y2="698.419" gradientUnits="userSpaceOnUse"><stop offset="0" stop-color="#fff"/><stop offset="0" stop-color="#fff" stop-opacity=".6"/><stop offset="1" stop-color="#fff" stop-opacity="0"/></linearGradient><linearGradient id="paint2_linear" x1="697.41" y1="763.995" x2="697.41" y2="1163.15" gradientUnits="userSpaceOnUse"><stop offset="0" stop-color="#fff"/><stop offset="0" stop-color="#fff" stop-opacity=".6"/><stop offset="1" stop-color="#fff" stop-opacity="0"/></linearGradient></defs></svg>