<svg width="22" height="22" fill="none" xmlns="http://www.w3.org/2000/svg"><path d="M11 .458c-6.077 0-11 4.84-11 10.81 0 4.777 3.151 8.827 7.521 10.255.55.102.752-.232.752-.52 0-.256-.01-.936-.014-1.837-3.06.652-3.705-1.45-3.705-1.45-.5-1.248-1.224-1.582-1.224-1.582-.996-.67.077-.656.077-.656 1.105.075 1.685 1.114 1.685 1.114.98 1.653 2.575 1.175 3.204.9.099-.7.382-1.176.697-1.447-2.443-.27-5.011-1.2-5.011-5.34 0-1.18.426-2.145 1.132-2.901-.124-.273-.495-1.373.096-2.861 0 0 .922-.29 3.025 1.108.88-.24 1.815-.36 2.75-.365.935.006 1.87.125 2.75.365 2.09-1.398 3.012-1.108 3.012-1.108.59 1.489.22 2.588.11 2.86a4.154 4.154 0 011.127 2.901c0 4.153-2.571 5.066-5.019 5.332.385.325.743.988.743 2 0 1.447-.014 2.61-.014 2.96 0 .284.193.622.756.514C18.851 20.09 22 16.037 22 11.268c0-5.97-4.925-10.81-11-10.81z" fill="#fff"/></svg>