<svg width="162" height="36" fill="none" xmlns="http://www.w3.org/2000/svg"><path d="M31.521 4.872v20.823h12.227v-4.06h-7.785V9.266c0-2.387-2.006-4.393-4.442-4.393zm18.818 6.638h-4.251v14.185h4.25V11.511zM81 19.582c0 1.385-.62 2.675-2.388 2.675-1.624 0-2.197-1.242-2.197-2.627v-8.12h-4.25v9.314c0 3.009 1.862 5.253 4.966 5.253 1.529 0 3.057-.62 4.06-2.053v1.72h4.012V11.558h-4.25v8.023H81zm12.227-8.072h-4.25v14.185h4.25V11.511zm46.995 5.397l-1.147-.239c-1.241-.286-1.767-.525-1.767-1.242 0-.716.717-1.003 1.576-1.003.812 0 1.624.24 1.624 1.433h4.299c-.239-3.2-2.675-4.68-5.923-4.68-3.247 0-5.922 1.624-5.922 4.537s2.197 3.868 4.728 4.394l1.385.286c1.051.24 1.624.526 1.624 1.29 0 .812-.716 1.194-1.767 1.194-1.098 0-1.958-.478-1.958-1.767h-4.442c.192 3.534 2.866 4.967 6.543 4.967 3.439 0 6.066-1.576 6.066-4.776-.048-2.818-2.149-3.773-4.919-4.394zm10.984 0c.526-1.385 1.672-2.293 3.343-2.293 1.672 0 2.866.86 3.296 2.293h-6.639zM162 18.435c0-4.06-2.818-7.26-7.403-7.26-4.394 0-7.594 3.344-7.594 7.451 0 4.108 3.009 7.45 7.546 7.45 3.773 0 6.352-1.957 7.212-4.966h-4.107c-.621 1.05-1.576 1.576-3.057 1.576-1.91 0-3.2-1.194-3.534-2.961H162v-1.29zm-40.118 4.06a3.78 3.78 0 01-3.773-3.773 3.781 3.781 0 013.773-3.773 3.78 3.78 0 013.773 3.773c-.048 2.101-1.719 3.773-3.773 3.773zm3.916-10.173c-1.146-.716-2.483-1.099-3.916-1.099-4.155 0-7.546 3.391-7.546 7.546s3.391 7.546 7.546 7.546c1.433 0 2.77-.382 3.916-1.098v.525h4.06V11.558h-4.06v.764zM104.88 22.494a3.78 3.78 0 01-3.773-3.773 3.78 3.78 0 013.773-3.773 3.781 3.781 0 013.773 3.773 3.781 3.781 0 01-3.773 3.773zm.477-11.27a7.548 7.548 0 00-4.394 1.098v-5.35a4.056 4.056 0 00-4.06-4.059v22.781h4.06v-.525c1.147.716 2.484 1.098 3.917 1.098 4.346 0 7.832-3.677 7.498-8.07-.239-3.726-3.296-6.735-7.021-6.974zM48.19 4.871a2.467 2.467 0 00-2.484 2.484 2.467 2.467 0 002.483 2.483 2.467 2.467 0 002.484-2.483c0-1.338-1.099-2.484-2.484-2.484zm42.887 0a2.466 2.466 0 00-2.483 2.484 2.466 2.466 0 002.483 2.483 2.467 2.467 0 002.484-2.483c0-1.338-1.099-2.484-2.484-2.484zM60.798 22.495a3.78 3.78 0 01-3.773-3.773 3.781 3.781 0 013.773-3.773 3.781 3.781 0 013.773 3.773 3.781 3.781 0 01-3.773 3.773zm3.868-10.985v.86a7.468 7.468 0 00-4.441-1.146c-3.773.238-6.83 3.247-7.069 6.973-.286 4.393 3.2 8.07 7.499 8.07a7.62 7.62 0 003.725-1.002v6.018a4.26 4.26 0 004.25 4.25V11.51h-3.964zM10.841 0c6.353 0 10.794 2.292 10.794 4.346 0 2.054-4.442 4.346-10.794 4.346S.049 6.4.049 4.346C.048 2.292 4.442 0 10.84 0zm.239 23.402c-3.438.812-7.02 1.671-9.313 3.2C.621 25.885 0 25.073 0 24.309c0-3.438 5.731-4.728 11.271-5.97 4.012-.907 8.072-1.814 10.364-3.677v3.009c0 3.2-5.349 4.49-10.555 5.73zm-.19-6.878c-4.204.956-8.502 1.91-10.89 3.964v-.668c0-5.97 6.543-7.498 12.895-8.979 4.585-1.098 6.83-1.624 8.74-3.152v3.343c0 3.057-5.492 4.299-10.746 5.492zm10.745 4.872c-2.245 1.91-6.256 2.866-10.125 3.773-2.818.67-5.683 1.338-7.69 2.34 1.816.67 4.251 1.1 7.021 1.1 6.305 0 10.794-2.246 10.794-4.347v-2.866z" fill="#fff"/></svg>