<svg width="22" height="20" fill="none" xmlns="http://www.w3.org/2000/svg"><path d="M22 9.23c0-1.696-1.228-3.076-2.738-3.076-.604 0-1.177.221-1.646.623-1.527-1.192-3.529-1.903-5.658-2.083l1.149-3.028 3.342.877c.106 1.162.972 2.072 2.033 2.072 1.132 0 2.053-1.035 2.053-2.307 0-1.273-.921-2.308-2.053-2.308-.718 0-1.349.417-1.716 1.046L12.861.02c-.332-.085-.656.105-.788.448l-1.588 4.184c-2.298.09-4.489.817-6.142 2.085a2.49 2.49 0 00-1.605-.583C1.228 6.154 0 7.534 0 9.23c0 1.124.546 2.141 1.384 2.663a5.146 5.146 0 00-.015.414c0 4.241 4.299 7.692 9.583 7.692 5.283 0 9.583-3.45 9.583-7.692 0-.12-.004-.239-.01-.357.891-.51 1.475-1.552 1.475-2.72zm-3.518-7.69c.376 0 .684.344.684.769 0 .424-.308.769-.684.769-.377 0-.685-.345-.685-.77 0-.424.308-.768.685-.768zm-12.321 10C6.16 10.69 6.775 10 7.53 10c.754 0 1.369.69 1.369 1.539s-.615 1.538-1.37 1.538c-.754 0-1.368-.69-1.368-1.538zm7.952 5.103c-.944.767-2.053 1.152-3.16 1.152-1.108 0-2.217-.385-3.162-1.152-.307-.25-.375-.731-.153-1.074.221-.343.65-.42.955-.173 1.412 1.147 3.306 1.15 4.718 0 .305-.247.732-.173.956.173.221.344.151.824-.154 1.074zm.262-3.565c-.756 0-1.37-.69-1.37-1.538 0-.848.614-1.539 1.37-1.539.755 0 1.369.69 1.369 1.539s-.614 1.538-1.37 1.538z" fill="#fff"/></svg>