<svg width="22" height="19" fill="none" xmlns="http://www.w3.org/2000/svg"><path d="M8.207 18.006c-.95 0-1.93-.077-2.915-.232-1.735-.272-3.492-1.18-3.989-1.451L0 15.61l1.411-.464c1.543-.507 2.481-.822 3.643-1.315-1.163-.563-2.06-1.576-2.491-2.886l-.328-.997.269.041a4.896 4.896 0 01-.613-.756c-.556-.844-.85-1.875-.788-2.76l.062-.87.52.203a4.869 4.869 0 01-.471-1.323 5.033 5.033 0 01.536-3.388l.454-.833.607.729c1.919 2.305 4.35 3.673 7.234 4.073-.118-.812-.03-1.596.263-2.299.34-.818.945-1.512 1.75-2.006a5.256 5.256 0 013.05-.75 4.872 4.872 0 012.994 1.236 9.867 9.867 0 001.097-.366c.24-.09.513-.193.854-.31L21.31.134l-.82 2.341c.054-.004.11-.008.168-.01L22 2.404l-.793 1.084c-.046.062-.057.08-.073.104-.064.096-.144.216-1.233 1.67a2.051 2.051 0 00-.383 1.335c.096 1.89-.135 3.599-.69 5.08a8.99 8.99 0 01-2.413 3.575c-1.333 1.201-3.032 2.023-5.052 2.443-.99.206-2.054.31-3.155.31z" fill="#fff"/></svg>